<svg xmlns="http://www.w3.org/2000/svg" viewBox="0 0 267 40.32"><title>QUARTO LOGO</title><path d="M47.5,140.4h-26a5,5,0,0,0-5,5v26a5,5,0,0,0,5,5h7.55A5,5,0,0,0,34,180.72h1a5,5,0,0,0,5-4.32H47.5a5,5,0,0,0,5-5v-26A5,5,0,0,0,47.5,140.4Zm-4.6,21.4a5,5,0,0,1-5,5H31.1a5,5,0,0,1-5-5V155a5,5,0,0,1,5-5h6.8a5,5,0,0,1,5,5Z" transform="translate(-16.5 -140.4)"/><path d="M237,145.4v16.4a5,5,0,0,1-5,5h-4.6v4.6a5,5,0,0,1-5,5h-6.8a5,5,0,0,1-5-5v-4.6H206a5,5,0,0,1-5-5V145.4a5,5,0,0,1,5-5h26A5,5,0,0,1,237,145.4Z" transform="translate(-16.5 -140.4)"/><path d="M278.5,140.4h-26a5,5,0,0,0-5,5v26a5,5,0,0,0,5,5h26a5,5,0,0,0,5-5v-26A5,5,0,0,0,278.5,140.4Zm-4.6,21.4a5,5,0,0,1-5,5h-6.8a5,5,0,0,1-5-5V155a5,5,0,0,1,5-5h6.8a5,5,0,0,1,5,5Z" transform="translate(-16.5 -140.4)"/><path d="M139.5,140.4h-26a5,5,0,0,0-5,5v26.2a4.8,4.8,0,0,0,4.8,4.8h3.62a1.18,1.18,0,0,0,1.18-1.18h0a5,5,0,0,1,5-5h6.8a5,5,0,0,1,5,5h0a1.18,1.18,0,0,0,1.18,1.18h3.62a4.8,4.8,0,0,0,4.8-4.8V145.4A5,5,0,0,0,139.5,140.4Zm-4.6,21.4a5,5,0,0,1-5,5h-6.8a5,5,0,0,1-5-5V155a5,5,0,0,1,5-5h6.8a5,5,0,0,1,5,5Z" transform="translate(-16.5 -140.4)"/><path d="M190.5,161V145.4a5,5,0,0,0-5-5h-26a5,5,0,0,0-5,5v26.2a4.8,4.8,0,0,0,4.8,4.8h3.62a1.16,1.16,0,0,0,1.18-1.15,5,5,0,0,1,5-5h6.8a5,5,0,0,1,5,5,1.17,1.17,0,0,0,1.18,1.15h3.62a4.77,4.77,0,0,0,3.44-1.46,1.18,1.18,0,0,0-.5-1.9,5,5,0,0,1-1.68-8.18,5.36,5.36,0,0,1,1.59-1.07A3,3,0,0,0,190.5,161Zm-9.6.79a5,5,0,0,1-5,5h-6.8a5,5,0,0,1-5-5V155a5,5,0,0,1,5-5h6.8a5,5,0,0,1,5,5Z" transform="translate(-16.5 -140.4)"/><path d="M98.5,145.2v26.2a5,5,0,0,1-5,5h-26a5,5,0,0,1-5-5V145.2a4.8,4.8,0,0,1,4.8-4.8h0a4.8,4.8,0,0,1,4.8,4.8v16.6a5,5,0,0,0,5,5h6.8a5,5,0,0,0,5-5V145.2a4.8,4.8,0,0,1,4.8-4.8h0A4.8,4.8,0,0,1,98.5,145.2Z" transform="translate(-16.5 -140.4)"/><path d="M190.5,162.16V145.4a5,5,0,0,0-5-5h-26a5,5,0,0,0-5,5v26.2a4.8,4.8,0,0,0,4.8,4.8h3.62a1.17,1.17,0,0,0,1.18-1.15,5,5,0,0,1,5-5h6.8a5,5,0,0,1,5,5,1.17,1.17,0,0,0,1.18,1.15h3.62a4.77,4.77,0,0,0,4.09-2.3.39.39,0,0,0-.33-.61h0a5,5,0,1,1-.24-10A1.21,1.21,0,0,0,190.5,162.16Zm-9.6-.36a5,5,0,0,1-5,5h-6.8a5,5,0,0,1-5-5V155a5,5,0,0,1,5-5h6.8a5,5,0,0,1,5,5Z" transform="translate(-16.5 -140.4)"/></svg>